<?xml version="1.0" standalone="no"?><!DOCTYPE svg PUBLIC "-//W3C//DTD SVG 1.1//EN" "http://www.w3.org/Graphics/SVG/1.1/DTD/svg11.dtd"><svg t="1660315175821" class="icon" viewBox="0 0 1024 1024" version="1.1" xmlns="http://www.w3.org/2000/svg" p-id="2027" xmlns:xlink="http://www.w3.org/1999/xlink" width="200" height="200"><defs><style type="text/css">@font-face { font-family: feedback-iconfont; src: url("//at.alicdn.com/t/font_1031158_u69w8yhxdu.woff2?t=1630033759944") format("woff2"), url("//at.alicdn.com/t/font_1031158_u69w8yhxdu.woff?t=1630033759944") format("woff"), url("//at.alicdn.com/t/font_1031158_u69w8yhxdu.ttf?t=1630033759944") format("truetype"); }
</style></defs><path d="M420.992 468.032H89.792a46.272 46.272 0 0 1-47.104-47.104V89.728c0-26.688 20.416-47.04 47.104-47.04h331.2c26.688 0 47.04 20.352 47.04 47.04v331.2a46.272 46.272 0 0 1-47.04 47.104z m-284.16-94.144h237.056V136.832H136.832v237.056zM420.992 981.312H89.792a46.272 46.272 0 0 1-47.104-47.104V603.008c0-26.688 20.416-47.04 47.104-47.04h331.2c26.688 0 47.04 20.352 47.04 47.04v331.2a46.272 46.272 0 0 1-47.04 47.104z m-284.16-94.144h237.056v-237.056H136.832v237.056zM934.272 468.032H603.072a46.272 46.272 0 0 1-47.104-47.104V89.728c0-26.688 20.416-47.04 47.104-47.04h331.2c26.624 0 47.04 20.352 47.04 47.04v331.2a46.272 46.272 0 0 1-47.04 47.104z m-284.16-94.144h237.056V136.832h-237.056v237.056zM934.272 981.312H603.072a46.272 46.272 0 0 1-47.104-47.104V603.008c0-26.688 20.416-47.04 47.104-47.04h331.2c26.624 0 47.04 20.352 47.04 47.04v331.2a46.272 46.272 0 0 1-47.04 47.104z m-284.16-94.144h237.056v-237.056h-237.056v237.056z" fill="#172B4D" p-id="2028"></path></svg>