<?xml version="1.0" standalone="no"?><!DOCTYPE svg PUBLIC "-//W3C//DTD SVG 1.1//EN" "http://www.w3.org/Graphics/SVG/1.1/DTD/svg11.dtd"><svg t="1660097628689" class="icon" viewBox="0 0 1024 1024" version="1.1" xmlns="http://www.w3.org/2000/svg" p-id="2299" xmlns:xlink="http://www.w3.org/1999/xlink" width="200" height="200"><defs><style type="text/css">@font-face { font-family: feedback-iconfont; src: url("//at.alicdn.com/t/font_1031158_u69w8yhxdu.woff2?t=1630033759944") format("woff2"), url("//at.alicdn.com/t/font_1031158_u69w8yhxdu.woff?t=1630033759944") format("woff"), url("//at.alicdn.com/t/font_1031158_u69w8yhxdu.ttf?t=1630033759944") format("truetype"); }
</style></defs><path d="M405.333333 390.4l-59.733333 59.733333 392.533333 392.533334c17.066667 17.066667 42.666667 17.066667 59.733334 0 17.066667-17.066667 17.066667-42.666667 0-59.733334L405.333333 390.4z" fill="#0288D1" p-id="2300"></path><path d="M339.2 565.333333l121.6-121.6L164.266667 149.333333l-12.8 10.666667c-59.733333 59.733333-59.733333 157.866667 0 217.6l187.733333 187.733333z" fill="#0288D1" p-id="2301"></path><path d="M663.466667 462.933333l-59.733334-59.733333-381.866666 379.733333c-17.066667 17.066667-17.066667 42.666667 0 59.733334 17.066667 17.066667 42.666667 17.066667 59.733333 0l381.866667-379.733334z" fill="#03A9F4" p-id="2302"></path><path d="M602.124904 221.824979a170.666667 213.333333 45.001 1 0 241.354902 241.363328 170.666667 213.333333 45.001 1 0-241.354902-241.363328Z" fill="#03A9F4" p-id="2303"></path></svg>