<?xml version="1.0" standalone="no"?><!DOCTYPE svg PUBLIC "-//W3C//DTD SVG 1.1//EN" "http://www.w3.org/Graphics/SVG/1.1/DTD/svg11.dtd"><svg t="1660098127759" class="icon" viewBox="0 0 1272 1024" version="1.1" xmlns="http://www.w3.org/2000/svg" p-id="4490" xmlns:xlink="http://www.w3.org/1999/xlink" width="248.4375" height="200"><defs><style type="text/css">@font-face { font-family: feedback-iconfont; src: url("//at.alicdn.com/t/font_1031158_u69w8yhxdu.woff2?t=1630033759944") format("woff2"), url("//at.alicdn.com/t/font_1031158_u69w8yhxdu.woff?t=1630033759944") format("woff"), url("//at.alicdn.com/t/font_1031158_u69w8yhxdu.ttf?t=1630033759944") format("truetype"); }
</style></defs><path d="M1227.507573 1018.372971H866.383534a45.036117 45.036117 0 0 1-45.026175-45.026175V296.940117a45.036117 45.036117 0 0 1 45.036117-45.026175h361.13398A45.036117 45.036117 0 0 1 1272.543689 296.96v676.396738a45.036117 45.036117 0 0 1-45.036116 45.036116z" fill="#4881C2" p-id="4491"></path><path d="M1095.431456 513.073709h-96.971806a45.036117 45.036117 0 0 1 0-90.05235h96.971806a45.036117 45.036117 0 0 1 0 90.062291z" fill="#39A3DB" p-id="4492"></path><path d="M406.170097 1018.372971H45.026175A45.036117 45.036117 0 0 1 0 973.356738V296.940117a45.036117 45.036117 0 0 1 45.036117-45.026175h361.13398a45.036117 45.036117 0 0 1 45.026175 45.036116v676.396738a45.036117 45.036117 0 0 1-45.036117 45.036117z" fill="#3797D3" p-id="4493"></path><path d="M911.399767 1018.372971H361.133981V45.672388a45.036117 45.036117 0 0 1 45.036116-45.026174h460.203495a45.036117 45.036117 0 0 1 45.036117 45.036116v972.700583z" fill="#48AEE2" p-id="4494"></path><path d="M911.399767 45.68233a45.036117 45.036117 0 0 0-45.026175-45.036116H636.271845v1017.736699h275.127922V45.672388z" fill="#39A3DB" p-id="4495"></path><path d="M274.093981 513.073709h-96.981748a45.036117 45.036117 0 0 1 0-90.05235h96.971806a45.036117 45.036117 0 0 1 0 90.062291z" fill="#48AEE2" p-id="4496"></path><path d="M774.859806 1018.372971H497.683883V786.243107a45.036117 45.036117 0 0 1 45.036117-45.026175H729.823689a45.036117 45.036117 0 0 1 45.036117 45.036117v232.129864zM361.133981 257.918757h172.022058a45.036117 45.036117 0 0 0 0-90.052349H361.143922v90.052349zM361.133981 441.035806h172.022058a45.036117 45.036117 0 0 0 0-90.062291H361.143922v90.062291zM361.133981 624.142913h172.022058a45.036117 45.036117 0 0 0 0-90.05235H361.143922v90.05235z" fill="#3797D3" p-id="4497"></path><path d="M774.859806 786.253049a45.026175 45.026175 0 0 0-45.036117-45.036117H636.271845v277.165981h138.587961v-232.139806zM911.399767 257.918757H739.377709a45.036117 45.036117 0 0 1 0-90.052349h172.022058v90.052349zM911.399767 441.035806H739.377709a45.036117 45.036117 0 0 1 0-90.062291h172.022058v90.062291zM911.399767 624.142913H739.377709a45.036117 45.036117 0 0 1 0-90.05235h172.022058v90.05235z" fill="#4881C2" p-id="4498"></path></svg>